<mxfile host="app.diagrams.net" modified="2023-09-15T05:13:00.788Z" agent="Mozilla/5.0 (X11; Linux x86_64) AppleWebKit/537.36 (KHTML, like Gecko) Chrome/115.0.0.0 Safari/537.36" etag="rtk1E75hVRJo1aiW6cEe" version="21.7.4" type="github">
  <diagram name="Page-1" id="b-6xckVPXs2P2aJV1ba9">
    <mxGraphModel dx="1354" dy="830" grid="1" gridSize="10" guides="1" tooltips="1" connect="1" arrows="1" fold="1" page="1" pageScale="1" pageWidth="827" pageHeight="1169" math="0" shadow="0">
      <root>
        <mxCell id="0" />
        <mxCell id="1" parent="0" />
        <mxCell id="Qzz4wPMc6zzwxHWdUron-1" value="VPC" style="points=[[0,0],[0.25,0],[0.5,0],[0.75,0],[1,0],[1,0.25],[1,0.5],[1,0.75],[1,1],[0.75,1],[0.5,1],[0.25,1],[0,1],[0,0.75],[0,0.5],[0,0.25]];outlineConnect=0;gradientColor=none;html=1;whiteSpace=wrap;fontSize=12;fontStyle=0;container=1;pointerEvents=0;collapsible=0;recursiveResize=0;shape=mxgraph.aws4.group;grIcon=mxgraph.aws4.group_vpc;strokeColor=#248814;fillColor=none;verticalAlign=top;align=left;spacingLeft=30;fontColor=#AAB7B8;dashed=0;" parent="1" vertex="1">
          <mxGeometry x="191" y="200" width="730" height="450" as="geometry" />
        </mxCell>
        <mxCell id="Qzz4wPMc6zzwxHWdUron-2" value="Mumbai Region" style="points=[[0,0],[0.25,0],[0.5,0],[0.75,0],[1,0],[1,0.25],[1,0.5],[1,0.75],[1,1],[0.75,1],[0.5,1],[0.25,1],[0,1],[0,0.75],[0,0.5],[0,0.25]];outlineConnect=0;gradientColor=none;html=1;whiteSpace=wrap;fontSize=12;fontStyle=0;container=1;pointerEvents=0;collapsible=0;recursiveResize=0;shape=mxgraph.aws4.group;grIcon=mxgraph.aws4.group_region;strokeColor=#147EBA;fillColor=none;verticalAlign=top;align=left;spacingLeft=30;fontColor=#147EBA;dashed=1;" parent="1" vertex="1">
          <mxGeometry x="160" y="170" width="790" height="530" as="geometry" />
        </mxCell>
        <mxCell id="Qzz4wPMc6zzwxHWdUron-3" value="Public subnet" style="points=[[0,0],[0.25,0],[0.5,0],[0.75,0],[1,0],[1,0.25],[1,0.5],[1,0.75],[1,1],[0.75,1],[0.5,1],[0.25,1],[0,1],[0,0.75],[0,0.5],[0,0.25]];outlineConnect=0;gradientColor=none;html=1;whiteSpace=wrap;fontSize=12;fontStyle=0;container=1;pointerEvents=0;collapsible=0;recursiveResize=0;shape=mxgraph.aws4.group;grIcon=mxgraph.aws4.group_security_group;grStroke=0;strokeColor=#248814;fillColor=#E9F3E6;verticalAlign=top;align=left;spacingLeft=30;fontColor=#248814;dashed=0;" parent="Qzz4wPMc6zzwxHWdUron-2" vertex="1">
          <mxGeometry x="60" y="90" width="360" height="280" as="geometry" />
        </mxCell>
        <mxCell id="Qzz4wPMc6zzwxHWdUron-4" value="Amazon EC2" style="sketch=0;outlineConnect=0;fontColor=#232F3E;gradientColor=none;strokeColor=#ffffff;fillColor=#232F3E;dashed=0;verticalLabelPosition=middle;verticalAlign=bottom;align=center;html=1;whiteSpace=wrap;fontSize=10;fontStyle=1;spacing=3;shape=mxgraph.aws4.productIcon;prIcon=mxgraph.aws4.ec2;" parent="Qzz4wPMc6zzwxHWdUron-3" vertex="1">
          <mxGeometry x="70" y="70" width="80" height="100" as="geometry" />
        </mxCell>
        <mxCell id="Qzz4wPMc6zzwxHWdUron-5" value="" style="rounded=1;arcSize=10;dashed=1;strokeColor=#ff0000;fillColor=none;gradientColor=none;dashPattern=8 4;strokeWidth=2;" parent="Qzz4wPMc6zzwxHWdUron-3" vertex="1">
          <mxGeometry x="50" y="60" width="120" height="120" as="geometry" />
        </mxCell>
        <mxCell id="Qzz4wPMc6zzwxHWdUron-6" value="" style="sketch=0;outlineConnect=0;fontColor=#232F3E;gradientColor=none;fillColor=#8C4FFF;strokeColor=none;dashed=0;verticalLabelPosition=bottom;verticalAlign=top;align=center;html=1;fontSize=12;fontStyle=0;aspect=fixed;pointerEvents=1;shape=mxgraph.aws4.nat_gateway;" parent="Qzz4wPMc6zzwxHWdUron-3" vertex="1">
          <mxGeometry x="251" y="20" width="50" height="50" as="geometry" />
        </mxCell>
        <mxCell id="3yBkLcb1T3f0heWFdctB-4" value="Security Groups" style="text;html=1;align=center;verticalAlign=middle;resizable=0;points=[];autosize=1;strokeColor=none;fillColor=none;" vertex="1" parent="Qzz4wPMc6zzwxHWdUron-3">
          <mxGeometry x="30" y="180" width="110" height="30" as="geometry" />
        </mxCell>
        <mxCell id="Qzz4wPMc6zzwxHWdUron-7" value="Private subnet" style="points=[[0,0],[0.25,0],[0.5,0],[0.75,0],[1,0],[1,0.25],[1,0.5],[1,0.75],[1,1],[0.75,1],[0.5,1],[0.25,1],[0,1],[0,0.75],[0,0.5],[0,0.25]];outlineConnect=0;gradientColor=none;html=1;whiteSpace=wrap;fontSize=12;fontStyle=0;container=1;pointerEvents=0;collapsible=0;recursiveResize=0;shape=mxgraph.aws4.group;grIcon=mxgraph.aws4.group_security_group;grStroke=0;strokeColor=#147EBA;fillColor=#E6F2F8;verticalAlign=top;align=left;spacingLeft=30;fontColor=#147EBA;dashed=0;" parent="Qzz4wPMc6zzwxHWdUron-2" vertex="1">
          <mxGeometry x="521" y="90" width="220" height="280" as="geometry" />
        </mxCell>
        <mxCell id="Qzz4wPMc6zzwxHWdUron-8" value="Amazon EC2" style="sketch=0;outlineConnect=0;fontColor=#232F3E;gradientColor=none;strokeColor=#ffffff;fillColor=#232F3E;dashed=0;verticalLabelPosition=middle;verticalAlign=bottom;align=center;html=1;whiteSpace=wrap;fontSize=10;fontStyle=1;spacing=3;shape=mxgraph.aws4.productIcon;prIcon=mxgraph.aws4.ec2;" parent="Qzz4wPMc6zzwxHWdUron-7" vertex="1">
          <mxGeometry x="70" y="60" width="80" height="100" as="geometry" />
        </mxCell>
        <mxCell id="Qzz4wPMc6zzwxHWdUron-9" value="" style="rounded=1;arcSize=10;dashed=1;strokeColor=#ff0000;fillColor=none;gradientColor=none;dashPattern=8 4;strokeWidth=2;" parent="Qzz4wPMc6zzwxHWdUron-7" vertex="1">
          <mxGeometry x="50" y="50" width="130" height="120" as="geometry" />
        </mxCell>
        <mxCell id="Qzz4wPMc6zzwxHWdUron-10" value="" style="sketch=0;outlineConnect=0;fontColor=#232F3E;gradientColor=none;fillColor=#8C4FFF;strokeColor=none;dashed=0;verticalLabelPosition=bottom;verticalAlign=top;align=center;html=1;fontSize=12;fontStyle=0;aspect=fixed;pointerEvents=1;shape=mxgraph.aws4.internet_gateway;" parent="Qzz4wPMc6zzwxHWdUron-2" vertex="1">
          <mxGeometry x="401" y="445" width="60" height="60" as="geometry" />
        </mxCell>
        <mxCell id="Qzz4wPMc6zzwxHWdUron-11" value="" style="endArrow=classic;html=1;entryX=0.675;entryY=1;entryDx=0;entryDy=0;entryPerimeter=0;curved=1;" parent="Qzz4wPMc6zzwxHWdUron-2" source="Qzz4wPMc6zzwxHWdUron-10" target="Qzz4wPMc6zzwxHWdUron-5" edge="1">
          <mxGeometry width="50" height="50" relative="1" as="geometry">
            <mxPoint x="491" y="330" as="sourcePoint" />
            <mxPoint x="541" y="280" as="targetPoint" />
            <Array as="points">
              <mxPoint x="171" y="350" />
            </Array>
          </mxGeometry>
        </mxCell>
        <mxCell id="Qzz4wPMc6zzwxHWdUron-12" value="" style="endArrow=classic;html=1;curved=1;" parent="Qzz4wPMc6zzwxHWdUron-2" source="Qzz4wPMc6zzwxHWdUron-10" target="Qzz4wPMc6zzwxHWdUron-6" edge="1">
          <mxGeometry width="50" height="50" relative="1" as="geometry">
            <mxPoint x="371" y="330" as="sourcePoint" />
            <mxPoint x="421" y="280" as="targetPoint" />
            <Array as="points">
              <mxPoint x="331" y="310" />
            </Array>
          </mxGeometry>
        </mxCell>
        <mxCell id="Qzz4wPMc6zzwxHWdUron-13" value="Internet Gateway" style="text;html=1;align=center;verticalAlign=middle;resizable=0;points=[];autosize=1;strokeColor=none;fillColor=none;" parent="Qzz4wPMc6zzwxHWdUron-2" vertex="1">
          <mxGeometry x="461" y="445" width="110" height="30" as="geometry" />
        </mxCell>
        <mxCell id="Qzz4wPMc6zzwxHWdUron-14" style="edgeStyle=orthogonalEdgeStyle;rounded=0;orthogonalLoop=1;jettySize=auto;html=1;" parent="Qzz4wPMc6zzwxHWdUron-2" source="Qzz4wPMc6zzwxHWdUron-9" target="Qzz4wPMc6zzwxHWdUron-6" edge="1">
          <mxGeometry relative="1" as="geometry" />
        </mxCell>
        <mxCell id="Qzz4wPMc6zzwxHWdUron-15" style="rounded=0;orthogonalLoop=1;jettySize=auto;html=1;exitX=1;exitY=0.5;exitDx=0;exitDy=0;entryX=-0.008;entryY=0.583;entryDx=0;entryDy=0;entryPerimeter=0;" parent="Qzz4wPMc6zzwxHWdUron-2" source="Qzz4wPMc6zzwxHWdUron-5" target="Qzz4wPMc6zzwxHWdUron-9" edge="1">
          <mxGeometry relative="1" as="geometry" />
        </mxCell>
        <mxCell id="Qzz4wPMc6zzwxHWdUron-16" style="edgeStyle=orthogonalEdgeStyle;orthogonalLoop=1;jettySize=auto;html=1;curved=1;" parent="1" source="Qzz4wPMc6zzwxHWdUron-17" target="Qzz4wPMc6zzwxHWdUron-10" edge="1">
          <mxGeometry relative="1" as="geometry">
            <Array as="points">
              <mxPoint x="591" y="780" />
              <mxPoint x="591" y="780" />
            </Array>
          </mxGeometry>
        </mxCell>
        <mxCell id="Qzz4wPMc6zzwxHWdUron-17" value="" style="points=[[0.13,0.225,0],[0.5,0,0],[0.87,0.225,0],[0.885,0.5,0],[0.985,0.99,0],[0.5,1,0],[0.015,0.99,0],[0.115,0.5,0]];verticalLabelPosition=bottom;sketch=0;html=1;verticalAlign=top;aspect=fixed;align=center;pointerEvents=1;shape=mxgraph.cisco19.laptop_video_client;fillColor=#005073;strokeColor=none;" parent="1" vertex="1">
          <mxGeometry x="541" y="820" width="94.12" height="80" as="geometry" />
        </mxCell>
        <mxCell id="Qzz4wPMc6zzwxHWdUron-18" value="Port 22" style="text;html=1;align=center;verticalAlign=middle;resizable=0;points=[];autosize=1;strokeColor=none;fillColor=none;" parent="1" vertex="1">
          <mxGeometry x="596" y="738" width="60" height="30" as="geometry" />
        </mxCell>
        <mxCell id="Qzz4wPMc6zzwxHWdUron-19" value="" style="sketch=0;outlineConnect=0;fontColor=#232F3E;gradientColor=none;fillColor=#232F3D;strokeColor=none;dashed=0;verticalLabelPosition=bottom;verticalAlign=top;align=center;html=1;fontSize=12;fontStyle=0;aspect=fixed;pointerEvents=1;shape=mxgraph.aws4.users;" parent="1" vertex="1">
          <mxGeometry x="261" y="830" width="78" height="78" as="geometry" />
        </mxCell>
        <mxCell id="Qzz4wPMc6zzwxHWdUron-20" value="" style="endArrow=classic;html=1;rounded=0;" parent="1" source="Qzz4wPMc6zzwxHWdUron-19" target="Qzz4wPMc6zzwxHWdUron-10" edge="1">
          <mxGeometry width="50" height="50" relative="1" as="geometry">
            <mxPoint x="531" y="860" as="sourcePoint" />
            <mxPoint x="411" y="800" as="targetPoint" />
          </mxGeometry>
        </mxCell>
        <mxCell id="Qzz4wPMc6zzwxHWdUron-21" value="Port 80/443" style="text;html=1;align=center;verticalAlign=middle;resizable=0;points=[];autosize=1;strokeColor=none;fillColor=none;" parent="1" vertex="1">
          <mxGeometry x="331" y="750" width="90" height="30" as="geometry" />
        </mxCell>
        <mxCell id="Qzz4wPMc6zzwxHWdUron-22" value="NAT" style="text;html=1;align=center;verticalAlign=middle;resizable=0;points=[];autosize=1;strokeColor=none;fillColor=none;" parent="1" vertex="1">
          <mxGeometry x="506" y="258" width="50" height="30" as="geometry" />
        </mxCell>
        <mxCell id="3yBkLcb1T3f0heWFdctB-2" value="Security Groups" style="text;html=1;align=center;verticalAlign=middle;resizable=0;points=[];autosize=1;strokeColor=none;fillColor=none;" vertex="1" parent="1">
          <mxGeometry x="755" y="428" width="110" height="30" as="geometry" />
        </mxCell>
      </root>
    </mxGraphModel>
  </diagram>
</mxfile>
